# xmcd
#
# Track frame offsets: 
#        150
#        51637
#        57677
#        80102
#        100415
#        131753
#        152717
#        171407
#        206717
#
# Disc length: 3087 seconds
#
# Revision: 3
# Processed by: cddbd v1.5.2PL0 Copyright (c) Steve Scherf et al.
# Submitted via: ExactAudioCopy v1.1
#
DISCID=8f0c0d09
DTITLE=Bernard Allison - Energized - Live in Europe [disk 2]
DYEAR=2006
DGENRE=Modern Electric Blues
TTITLE0=The Walk
TTITLE1=Step Down
TTITLE2=Talking Guitar
TTITLE3=Snake Bit Again
TTITLE4=A Change Must Come
TTITLE5=Too Cool
TTITLE6=Wah Wah Action
TTITLE7=Don't Be Confused
TTITLE8=I Just Came Back To Say Goodbye
EXTD=
EXTT0=
EXTT1=
EXTT2=
EXTT3=
EXTT4=
EXTT5=
EXTT6=
EXTT7=
EXTT8=
PLAYORDER=
